<svg version="1.1" id="svg1" width="1333.3333" height="1066.6667" viewBox="0 0 1333.3333 1066.6667" sodipodi:docname="66139.eps" xmlns:inkscape="http://www.inkscape.org/namespaces/inkscape" xmlns:sodipodi="http://sodipodi.sourceforge.net/DTD/sodipodi-0.dtd" xmlns="http://www.w3.org/2000/svg" xmlns:svg="http://www.w3.org/2000/svg">
  <defs id="defs1"></defs>
  <sodipodi:namedview id="namedview1" pagecolor="#ffffff" bordercolor="#000000" borderopacity="0.25" inkscape:showpageshadow="2" inkscape:pageopacity="0.0" inkscape:pagecheckerboard="0" inkscape:deskcolor="#d1d1d1">
    <inkscape:page x="0" y="0" inkscape:label="1" id="page1" width="1333.3333" height="1066.6667" margin="0" bleed="0"></inkscape:page>
  </sodipodi:namedview>
  <g id="g1" inkscape:groupmode="layer" inkscape:label="1">
    <g id="group-R5">
      
      <path id="path3" d="M 8978.03,263.492 H 1201.27 c -249.704,0 -454.004,91.789 -454.004,203.977 v 81.59 c 0,50.242 41.047,96.339 108.695,131.992 H 613.738 c -249.699,0 -454,91.781 -454,203.969 0,112.191 204.301,203.98 454,203.98 H 1308.9 c -143.17,34.42 -241.16,102.3 -241.16,179.99 0,112.18 204.3,203.97 454,203.97 H 9416 c 249.7,0 454,-91.79 454,-203.97 C 9870,1156.8 9665.7,1065 9416,1065 l -934.71,2.76 c 96.79,-12.26 135.86,-44.85 160.24,-85.947 37.61,-63.411 34.2,-140 -42.73,-190.325 -42.81,-27.996 -106.1,-42.277 -146.56,-42.957 l 525.79,4.508 c 249.7,0 453.99,-91.789 453.99,-203.98 v -81.59 c 0,-112.188 -204.29,-203.977 -453.99,-203.977" style="fill: rgb(246, 234, 234); fill-opacity: 1; fill-rule: nonzero; opacity: 1;" transform="matrix(0.13333333,0,0,-0.13333333,0,1066.6667)" data-index="1"></path>
      <path id="path4" d="m 3125.13,5472.97 c 0,-464.63 -376.66,-841.29 -841.29,-841.29 -464.64,0 -841.29,376.66 -841.29,841.29 0,464.63 376.65,841.29 841.29,841.29 464.63,0 841.29,-376.66 841.29,-841.29" style="fill:#353a85;fill-opacity:1;fill-rule:nonzero;stroke:none" transform="matrix(0.13333333,0,0,-0.13333333,0,1066.6667)" data-index="2"></path>
      <path id="path5" d="m 3012.96,5472.97 c 0,-402.68 -326.44,-729.12 -729.12,-729.12 -402.68,0 -729.12,326.44 -729.12,729.12 0,402.68 326.44,729.12 729.12,729.12 402.68,0 729.12,-326.44 729.12,-729.12" style="fill:#f7f7f7;fill-opacity:1;fill-rule:nonzero;stroke:none" transform="matrix(0.13333333,0,0,-0.13333333,0,1066.6667)" data-index="3"></path>
      <path id="path6" d="m 2283.84,4739.18 c -223.08,0 -422.73,100.22 -556.47,258.05 6.79,-6.41 13.7,-12.69 20.73,-18.83 133.21,-144.23 323.93,-234.55 535.74,-234.55 401.89,0 727.84,325.18 729.12,726.77 0,-0.78 0,-1.55 0,-2.32 0,-402.68 -326.44,-729.12 -729.12,-729.12" style="fill:#32377f;fill-opacity:1;fill-rule:nonzero;stroke:none" transform="matrix(0.13333333,0,0,-0.13333333,0,1066.6667)" data-index="4"></path>
      <path id="path7" d="m 2283.84,4743.85 c -211.81,0 -402.53,90.32 -535.74,234.55 128.2,-112.08 295.99,-180.02 479.65,-180.02 402.69,0 729.12,326.44 729.12,729.12 0,179.6 -64.97,344 -172.65,471.07 140.31,-132.44 228.08,-319.94 228.74,-527.95 -1.28,-401.59 -327.23,-726.77 -729.12,-726.77" style="fill:#e9ebec;fill-opacity:1;fill-rule:nonzero;stroke:none" transform="matrix(0.13333333,0,0,-0.13333333,0,1066.6667)" data-index="5"></path>
      <path id="path8" d="m 2232.07,5470.62 -0.95,-22.64 c -0.39,-9.35 6.87,-17.24 16.21,-17.63 l 692.03,-28.97 c 9.34,-0.39 17.23,6.87 17.62,16.21 l 0.95,22.63 c 0.4,9.35 -6.87,17.25 -16.21,17.64 l -692.02,28.97 c -9.35,0.39 -17.24,-6.87 -17.63,-16.21" style="fill:#d67086;fill-opacity:1;fill-rule:nonzero;stroke:none" transform="matrix(0.13333333,0,0,-0.13333333,0,1066.6667)" data-index="6"></path>
      <path id="path9" d="m 2311.88,5521.49 v 358.1 c 0,15.49 -12.55,28.05 -28.04,28.05 -15.49,0 -28.04,-12.56 -28.04,-28.05 v -358.1 c -16.75,-9.7 -28.05,-27.77 -28.05,-48.52 0,-30.97 25.11,-56.09 56.09,-56.09 30.97,0 56.09,25.12 56.09,56.09 0,20.75 -11.3,38.82 -28.05,48.52" style="fill:#292949;fill-opacity:1;fill-rule:nonzero;stroke:none" transform="matrix(0.13333333,0,0,-0.13333333,0,1066.6667)" data-index="7"></path>
      <path id="path10" d="m 2958.82,4726.33 c 81.91,-22.4 146.39,-98.2 155.37,-182.64 44.77,41.7 67.62,105.72 59.37,166.34 -8.24,60.62 -47.35,116.22 -101.63,144.46 -50.78,-26.96 -90.15,-74.64 -107.01,-129.6 l -6.1,1.44" style="fill:#8c6654;fill-opacity:1;fill-rule:nonzero;stroke:none" transform="matrix(0.13333333,0,0,-0.13333333,0,1066.6667)" data-index="8"></path>
      <path id="path11" d="m 8762.31,5628.04 -274.03,-62.65 c -11.22,12.94 -28.43,19.5 -45.58,15.58 l -723.28,-165.38 c -17.15,-3.92 -29.79,-17.3 -34.27,-33.84 l -274.04,-62.65 66.95,-292.75 271.04,61.98 c 10.7,-16.92 30.44,-26.23 50.13,-21.73 l 723.27,165.37 c 19.68,4.5 33.41,21.46 35.69,41.35 l 271.06,61.98 -66.94,292.74" style="fill:#353a85;fill-opacity:1;fill-rule:nonzero;stroke:none" transform="matrix(0.13333333,0,0,-0.13333333,0,1066.6667)" data-index="9"></path>
      <path id="path12" d="m 7568.16,5046.91 v 0.04 l 103.77,23.74 0.02,-0.04 -103.79,-23.74" style="fill:#e0e0e0;fill-opacity:1;fill-rule:nonzero;stroke:none" transform="matrix(0.13333333,0,0,-0.13333333,0,1066.6667)" data-index="10"></path>
      <path id="path13" d="m 7568.16,5046.95 -65.14,285 29.54,7.76 139.37,-269.02 -103.77,-23.74" style="fill:#2f3375;fill-opacity:1;fill-rule:nonzero;stroke:none" transform="matrix(0.13333333,0,0,-0.13333333,0,1066.6667)" data-index="11"></path>
      <path id="path14" d="m 7566.17,4657.72 -109.02,-24.92 c -45,-10.29 -89.84,17.85 -100.12,62.86 l -197.06,861.84 c -10.29,45.01 17.85,89.84 62.86,100.13 l 109.02,24.92 c 45,10.3 89.83,-17.85 100.12,-62.85 l 197.05,-861.85 c 10.3,-45.01 -17.85,-89.83 -62.85,-100.13" style="fill:#353a85;fill-opacity:1;fill-rule:nonzero;stroke:none" transform="matrix(0.13333333,0,0,-0.13333333,0,1066.6667)" data-index="12"></path>
      <path id="path15" d="m 7296.01,4595.96 -109.02,-24.93 c -45.01,-10.29 -89.83,17.85 -100.12,62.86 l -197.06,861.85 c -10.29,45 17.86,89.83 62.86,100.12 l 109.01,24.93 c 45.01,10.28 89.83,-17.86 100.13,-62.87 l 197.06,-861.84 c 10.28,-45.01 -17.85,-89.83 -62.86,-100.12" style="fill:#353a85;fill-opacity:1;fill-rule:nonzero;stroke:none" transform="matrix(0.13333333,0,0,-0.13333333,0,1066.6667)" data-index="13"></path>
      <path id="path16" d="m 7009.68,4912.89 -30.04,2.53 c -21.85,1.84 -42.09,23.89 -48.78,53.12 l -36.12,157.99 c -6.69,29.24 1.96,57.9 20.85,69.05 l 25.94,15.33 c 25.98,15.34 59.48,-8.36 68.68,-48.58 l 40.2,-175.85 c 9.2,-40.22 -10.67,-76.12 -40.73,-73.59" style="fill:#353a85;fill-opacity:1;fill-rule:nonzero;stroke:none" transform="matrix(0.13333333,0,0,-0.13333333,0,1066.6667)" data-index="14"></path>
      <path id="path17" d="m 8894.69,4961.49 65.25,14.92 c 57.09,13.05 92.79,69.91 79.74,127.01 l -187.05,818.07 c -13.06,57.1 -69.92,92.8 -127.01,79.75 l -65.25,-14.92 c -57.1,-13.06 -92.79,-69.92 -79.74,-127.01 l 187.06,-818.08 c 13.04,-57.1 69.91,-92.8 127,-79.74" style="fill:#353a85;fill-opacity:1;fill-rule:nonzero;stroke:none" transform="matrix(0.13333333,0,0,-0.13333333,0,1066.6667)" data-index="15"></path>
      <path id="path18" d="m 9164.85,5023.26 65.25,14.92 c 57.09,13.05 92.79,69.92 79.74,127.01 l -187.06,818.08 c -13.04,57.09 -69.91,92.79 -127,79.74 l -65.25,-14.92 c -57.09,-13.06 -92.8,-69.92 -79.74,-127.01 L 9037.84,5103 c 13.06,-57.1 69.92,-92.79 127.01,-79.74" style="fill:#353a85;fill-opacity:1;fill-rule:nonzero;stroke:none" transform="matrix(0.13333333,0,0,-0.13333333,0,1066.6667)" data-index="16"></path>
      <path id="path19" d="m 9263.12,5428.12 25.95,15.34 c 18.88,11.15 27.53,39.81 20.84,69.04 l -36.12,157.99 c -6.68,29.25 -26.92,51.29 -48.78,53.13 l -30.04,2.53 c -30.05,2.53 -49.92,-33.38 -40.73,-73.6 l 40.21,-175.84 c 9.19,-40.22 42.7,-63.92 68.67,-48.59" style="fill:#353a85;fill-opacity:1;fill-rule:nonzero;stroke:none" transform="matrix(0.13333333,0,0,-0.13333333,0,1066.6667)" data-index="17"></path>
      <path id="path20" d="m 2001.23,4620.6 37.82,134.73 -56.88,18.67 -46.33,-86.52 -22.8,21.31 -18.31,-119.23 56.5,-27.39 50,58.43" style="fill:#c1796b;fill-opacity:1;fill-rule:nonzero;stroke:none" transform="matrix(0.13333333,0,0,-0.13333333,0,1066.6667)" data-index="18"></path>
      <path id="path21" d="m 1028.33,4019.45 542.68,69.78 316.38,542.78 109.34,-60.09 -231.5,-723.62 -644.78,-234.63 -92.12,405.78" style="fill: rgb(140, 171, 239); fill-opacity: 1; fill-rule: nonzero; opacity: 1;" transform="matrix(0.13333333,0,0,-0.13333333,0,1066.6667)" data-index="19"></path>
      <path id="path22" d="m 1166.98,2650.27 v -185.96 l 247.97,-805.9 -43.28,-874.238 108.33,-20 275.9,1049.218 -9.48,300.94 -114.5,613.77 -464.94,-77.83" style="fill:#babcbe;fill-opacity:1;fill-rule:nonzero;stroke:none" transform="matrix(0.13333333,0,0,-0.13333333,0,1066.6667)" data-index="20"></path>
      <path id="path23" d="M 1363.68,2430.08 1108.2,682.051 1005.38,671.879 929.734,1655.18 774.758,2585.06 1363.68,2430.08" style="fill: rgb(186, 188, 190); fill-opacity: 1; fill-rule: nonzero; opacity: 1;" transform="matrix(0.13333333,0,0,-0.13333333,0,1066.6667)" data-index="21"></path>
      <path id="path24" d="m 1482.28,769.262 118.31,-125.211 -34.18,-63.469 -244.12,117.168 44.97,92.77 115.02,-21.258" style="fill: rgb(41, 41, 73); fill-opacity: 1; fill-rule: nonzero; opacity: 1;" transform="matrix(0.13333333,0,0,-0.13333333,0,1066.6667)" data-index="22"></path>
      <path id="path25" d="m 1112.42,685.551 145.84,-91.68 -17.23,-70 -265.647,52.469 20.355,101.051 116.682,8.16" style="fill: rgb(41, 41, 73); fill-opacity: 1; fill-rule: nonzero; opacity: 1;" transform="matrix(0.13333333,0,0,-0.13333333,0,1066.6667)" data-index="23"></path>
      <path id="path26" d="m 1508.7,4514.08 c -100.45,-7.39 -194.37,75.1 -293.23,54.63 -64.28,-13.32 -115.03,-70.33 -134.64,-134.59 -9.15,-29.95 -12.39,-62.59 -3.44,-92.37 5.81,-19.33 16.52,-36.75 29.13,-52.23 16.86,-20.69 37.47,-37.88 60.36,-51.09 -12.57,-20.26 -26.98,-39.39 -42.99,-57.05 46.32,-17.74 92.64,-35.48 138.97,-53.22 10.24,26.62 20.47,53.24 30.71,79.86 13.93,0.77 27.81,2.75 41.41,6.28 82.25,21.34 150.44,93.38 168.77,178.3 8.6,39.78 6.95,80.92 4.95,121.48" style="fill:#c1796b;fill-opacity:1;fill-rule:nonzero;stroke:none" transform="matrix(0.13333333,0,0,-0.13333333,0,1066.6667)" data-index="24"></path>
      <path id="path27" d="m 1483.33,4483.78 -310.58,36.9 -60.28,-237.24 -87.71,69.6 45.2,388.21 438.32,9.43 189.79,-111.34 -8.03,-111.58 -169.71,-114.22 -37,70.24" style="fill:#292949;fill-opacity:1;fill-rule:nonzero;stroke:none" transform="matrix(0.13333333,0,0,-0.13333333,0,1066.6667)" data-index="25"></path>
      <path id="path28" d="m 1362.78,4091.43 -368.909,146.34 c 0,0 -172.332,-364.16 -321.375,-885.81 -149.043,-521.65 48.129,-1246.07 48.129,-1246.07 0,0 1028.695,210 1197.465,243.12 l -332.94,1043.3 -222.37,699.12" style="fill: rgb(140, 171, 239); fill-opacity: 1; fill-rule: nonzero; opacity: 1;" transform="matrix(0.13333333,0,0,-0.13333333,0,1066.6667)" data-index="26"></path>
      <path id="path29" d="m 8528.01,4153.29 c 45.19,1.96 90.39,3.93 135.58,5.89 2.44,35.99 1.99,72.17 -1.33,108.09 0.4,-4.36 72.72,33.77 79.13,42.42 18.41,24.9 20.55,66.72 28.22,96.35 16.32,63.1 31.66,134.15 -1.68,190.16 -34.54,57.99 -109.26,77.85 -176.74,79.61 -84.73,2.21 -179.32,-22.48 -222.89,-95.18 -39.34,-65.66 10.29,-162.51 24.47,-231.94 7,-34.24 17.66,-73.31 49.47,-87.77 16.88,-7.67 37.37,-6.84 52.45,-17.65 26.59,-19.06 20.6,-59.83 33.32,-89.98" style="fill:#efbfa5;fill-opacity:1;fill-rule:nonzero;stroke:none" transform="matrix(0.13333333,0,0,-0.13333333,0,1066.6667)" data-index="27"></path>
      <path id="path30" d="m 8234.8,4706.17 c -5.03,46.83 -10.07,93.66 -15.1,140.5 -1.88,17.39 -3.68,35.43 1.94,52 9.36,27.55 37.32,44.76 65.41,52.36 28.09,7.6 57.65,7.89 86.07,14.14 30.32,6.67 59.8,20.18 90.82,18.82 58.99,-2.6 104.15,-57.32 162.46,-66.64 80.74,-12.9 154.87,24.09 203.62,-70.93 8.95,-17.46 11.44,-37.55 19.34,-55.51 10.2,-23.2 28.77,-41.51 43.29,-62.28 63.83,-91.35 43.19,-229.99 -34.18,-307.41 -37.52,-37.54 -52.86,-71.49 -104.55,-83.53 23.67,48.12 -7.58,239.78 -72.39,261.28 -17.16,5.69 -68.71,-15.3 -87.72,-18.08 -42.12,-6.15 -83.06,-12.91 -122.68,-29.32 -58.8,-24.35 -122.63,-41.61 -186.27,-46.36 -8.14,-0.6 -17.24,-0.91 -23.39,4.46 -5.78,5.06 -6.98,13.45 -7.8,21.08 -6.29,58.48 -12.58,116.95 -18.87,175.42" style="fill:#292949;fill-opacity:1;fill-rule:nonzero;stroke:none" transform="matrix(0.13333333,0,0,-0.13333333,0,1066.6667)" data-index="28"></path>
      <path id="path31" d="M 9246.15,698.352 9264.33,622 9129.8,509.313 l -94.52,58.167 58.18,94.52 134.52,112.699 18.17,-76.347" style="fill:#292949;fill-opacity:1;fill-rule:nonzero;stroke:none" transform="matrix(0.13333333,0,0,-0.13333333,0,1066.6667)" data-index="29"></path>
      <path id="path32" d="m 8937.41,3060.1 55.2,-231.88 -69.98,-1078.36 325.66,-1025.008 -144.23,-66.332 -652.53,1183.38 -77.49,378.02 -39.39,799.21 602.76,40.97" style="fill:#babcbe;fill-opacity:1;fill-rule:nonzero;stroke:none" transform="matrix(0.13333333,0,0,-0.13333333,0,1066.6667)" data-index="30"></path>
      <path id="path33" d="M 8033.54,2968.15 8021.95,1966.44 8210.72,674.879 h 145.15 l 91.67,1191.741 198.62,1191.74 -612.62,-90.21" style="fill:#babcbe;fill-opacity:1;fill-rule:nonzero;stroke:none" transform="matrix(0.13333333,0,0,-0.13333333,0,1066.6667)" data-index="31"></path>
      <path id="path34" d="m 8355.03,692.16 v -78.488 l -156.96,-78.473 -78.48,78.473 78.48,78.488 h 156.96" style="fill:#292949;fill-opacity:1;fill-rule:nonzero;stroke:none" transform="matrix(0.13333333,0,0,-0.13333333,0,1066.6667)" data-index="32"></path>
      <path id="path35" d="m 9110.08,2776.55 c 1.99,-91.39 -0.88,-214.56 -35.99,-219.07 -6.58,-0.84 -12.88,2.41 -18.63,5.55 -60.72,33.15 -103.67,79.8 -163.52,111.82 -62.72,33.57 -134.48,51.41 -204.85,63.9 -105.23,19.23 -212.78,31.15 -320,33.02 -84.29,1.47 -168.97,-5.71 -252.9,-12.7 -69.82,-5.81 -134.8,-26.5 -205.93,-21.57 -72.91,5.06 -144.72,27.38 -207.05,65.69 -2.28,1.4 -4.7,2.99 -5.64,5.5 -1.04,2.75 -0.02,5.79 0.97,8.54 14.9,40.81 25.6,81.22 52.64,115.02 30.2,37.74 51.66,85.69 73.49,128.65 45.49,89.53 88.34,183.36 120.13,278.74 48.05,129.65 102.93,255.93 149.38,385.99 32.2,90.16 61.55,181.93 105.23,267.4 34.21,66.93 95.17,164.69 168.6,194.17 24.85,9.97 52.27,10.87 79.04,11.64 81.2,2.33 162.4,4.66 243.61,6.99 29.6,0.85 60.39,1.48 87.38,-10.72 40.44,-18.27 63.31,-60.74 83.29,-100.37 89.61,-177.68 146.73,-369.24 178.75,-566.8 16.71,-103.15 32.16,-206.49 44.19,-310.24 13.42,-115.77 22.64,-232.06 24.59,-348.54 0.21,-12.94 2.26,-49.19 3.22,-92.61" style="fill:#474ebb;fill-opacity:1;fill-rule:nonzero;stroke:none" transform="matrix(0.13333333,0,0,-0.13333333,0,1066.6667)" data-index="33"></path>
      <path id="path36" d="m 8568.24,3756.6 c -3.04,-46 3.52,-92.06 10.06,-137.72 39.86,-278.13 79.73,-556.25 119.6,-834.38 -218.05,1.91 -436.08,3.8 -654.13,5.7 7.9,104.2 15.79,208.41 23.69,312.61 5.06,66.81 10.16,133.85 24.26,199.41 22.74,105.74 68.38,205.28 113.7,303.87 83.73,182.17 167.46,364.34 251.19,546.5 4.47,9.74 9.2,19.81 17.45,26.82 9.88,8.4 23.37,11.21 36.28,13.46 62.34,10.83 132.71,19.99 195.34,10.79 15.67,-57.02 -42.11,-156.15 -63.51,-209.19 -31.15,-77.18 -68.34,-153.8 -73.93,-237.87" style="fill:#ffffff;fill-opacity:1;fill-rule:nonzero;stroke:none" transform="matrix(0.13333333,0,0,-0.13333333,0,1066.6667)" data-index="34"></path>
      <path id="path37" d="m 8161.45,3866.56 -306.96,456.86 -78.51,720.96 128.48,28.56 171.32,-656.72 299.82,-264.13 -214.15,-285.53" style="fill:#474ebb;fill-opacity:1;fill-rule:nonzero;stroke:none" transform="matrix(0.13333333,0,0,-0.13333333,0,1066.6667)" data-index="35"></path>
      <path id="path38" d="m 7904.46,5072.94 v 46.8 l 21.42,46 -7.14,35.69 h -35.69 l -14.28,-78.52 -106.82,-25.44 14.03,-53.09 128.48,28.56" style="fill:#efbfa5;fill-opacity:1;fill-rule:nonzero;stroke:none" transform="matrix(0.13333333,0,0,-0.13333333,0,1066.6667)" data-index="36"></path>
      <path id="path39" d="m 8320.57,3317.65 -66.23,-26.36 -57.34,25.77 -11.63,-9.37 10.96,-14.79 -53.7,7.77 -37.6,-22.95 -4.24,-58.45 33.67,-50.33 58.49,1.94 59.06,36.81 92.23,32.14 -23.67,77.82" style="fill:#efbfa5;fill-opacity:1;fill-rule:nonzero;stroke:none" transform="matrix(0.13333333,0,0,-0.13333333,0,1066.6667)" data-index="37"></path>
      <path id="path40" d="m 8244.12,3335.19 381.31,160.18 42.83,456.86 264.12,-114.22 -60.91,-508.51 -577.15,-123.95 -50.2,129.64" style="fill:#474ebb;fill-opacity:1;fill-rule:nonzero;stroke:none" transform="matrix(0.13333333,0,0,-0.13333333,0,1066.6667)" data-index="38"></path>
      <path id="path41" d="m 4507.9,2539.94 50.49,-690.86 167.17,-1143.771 h 128.54 l 81.18,1055.371 35.96,853.87 -463.34,-74.61" style="fill: rgb(186, 188, 190); fill-opacity: 1; fill-rule: nonzero; opacity: 1;" transform="matrix(0.13333333,0,0,-0.13333333,0,1066.6667)" data-index="39"></path>
      <path id="path42" d="m 4853.35,720.609 v -69.507 l -139,-69.5 -69.5,69.5 69.5,69.507 h 139" style="fill:#292949;fill-opacity:1;fill-rule:nonzero;stroke:none" transform="matrix(0.13333333,0,0,-0.13333333,0,1066.6667)" data-index="40"></path>
      <path id="path43" d="M 5418.4,2702.76 5369.54,1734.37 5257.69,622.652 h -131.66 l -107,1053.298 -156.32,1108.63 555.69,-81.82" style="fill: rgb(186, 188, 190); fill-opacity: 1; fill-rule: nonzero; opacity: 1;" transform="matrix(0.13333333,0,0,-0.13333333,0,1066.6667)" data-index="41"></path>
      <path id="path44" d="m 5126.79,638.32 v -71.191 l 142.37,-71.18 71.18,71.18 -71.18,71.191 h -142.37" style="fill:#292949;fill-opacity:1;fill-rule:nonzero;stroke:none" transform="matrix(0.13333333,0,0,-0.13333333,0,1066.6667)" data-index="42"></path>
      <path id="path45" d="m 4969.69,4255.45 c 44.91,4.39 89.82,8.78 134.73,13.17 0.49,35.99 -1.91,72.01 -7.15,107.62 37.45,13.11 80.72,32.78 87.3,71.91 2.07,12.32 -0.05,24.92 -2.16,37.24 -8.73,50.92 -17.45,101.84 -26.18,152.75 -3.02,17.62 -6.23,35.75 -15.79,50.84 -16.76,26.5 -49.36,38.12 -80.24,43.52 -78.81,13.8 -164.74,-3.16 -225.93,-54.71 -16.29,-13.72 -31.02,-30.22 -38.22,-50.26 -11.09,-30.9 -2.87,-65.01 5.42,-96.78 7.66,-29.32 15.32,-58.64 22.98,-87.96 8.8,-33.73 21.53,-72.07 54,-84.75 17.23,-6.74 37.6,-4.81 53.2,-14.76 27.52,-17.55 23.75,-58.49 38.04,-87.83" style="fill:#efbfa5;fill-opacity:1;fill-rule:nonzero;stroke:none" transform="matrix(0.13333333,0,0,-0.13333333,0,1066.6667)" data-index="43"></path>
      <path id="path46" d="m 4530.9,4764.36 c -0.88,34.9 4.03,70.22 11.01,102.05 11.98,54.7 76.51,79.28 132.37,83.16 120.65,8.37 237.07,63.07 354.89,20.85 67.35,-24.13 157.79,-29.92 218.74,-63.95 25.45,-14.2 45.74,-36.38 61.55,-60.86 54.77,-84.85 54.92,-201.72 0.35,-286.7 -12.23,-19.07 -26.87,-36.48 -42.25,-53.12 -31.84,-34.43 -69.91,-76.96 -113.66,-89.67 -0.99,39.12 34.81,162.41 4.81,194.52 -47.61,50.94 -155.42,33.34 -214.58,20.89 -64.53,-13.58 -122.1,-59.19 -186.07,-68.86 -46.03,-6.96 -104.74,15.69 -143.85,39.53 -61.27,37.35 -81.73,99.08 -83.31,162.16" style="fill:#292949;fill-opacity:1;fill-rule:nonzero;stroke:none" transform="matrix(0.13333333,0,0,-0.13333333,0,1066.6667)" data-index="44"></path>
      <path id="path47" d="m 5748.95,4902.49 26.08,81.14 -35.39,66.31 10.24,14.63 18.53,-11.87 -13.62,63.44 24.33,46.71 69.39,9.79 62.78,-36.09 2.42,-69.93 -39.13,-73.45 -30.88,-112.62 -94.75,21.94" style="fill:#efbfa5;fill-opacity:1;fill-rule:nonzero;stroke:none" transform="matrix(0.13333333,0,0,-0.13333333,0,1066.6667)" data-index="45"></path>
      <path id="path48" d="m 5745.3,4962.35 128.49,-7.14 -128.49,-635.31 -366.53,-378.04 -212.59,317.55 386.38,253.23 192.74,449.71" style="fill:#474ebb;fill-opacity:1;fill-rule:nonzero;stroke:none" transform="matrix(0.13333333,0,0,-0.13333333,0,1066.6667)" data-index="46"></path>
      <path id="path49" d="m 4378.57,5138.91 -4.37,85.11 51.23,55 -6.14,16.78 -20.96,-6.72 29.45,57.82 -11.53,51.39 -64.55,27.28 -69.93,-18.77 -20.3,-66.97 18.96,-81.03 0.94,-116.77 97.2,-3.12" style="fill:#efbfa5;fill-opacity:1;fill-rule:nonzero;stroke:none" transform="matrix(0.13333333,0,0,-0.13333333,0,1066.6667)" data-index="47"></path>
      <path id="path50" d="m 4397.47,5195.83 -126.01,26.08 -9.99,-484.81 49.52,-374.7 322.23,-472.92 263.82,381.69 -306.31,225.1 -193.26,699.56" style="fill:#474ebb;fill-opacity:1;fill-rule:nonzero;stroke:none" transform="matrix(0.13333333,0,0,-0.13333333,0,1066.6667)" data-index="48"></path>
      <path id="path51" d="m 4863,4290.1 425.68,-18.02 214.88,-817.89 177.45,-1133.84 -1370.02,-33.31 322.23,1602.44 229.78,400.62" style="fill: rgb(71, 78, 187); fill-opacity: 1; fill-rule: nonzero; opacity: 1;" transform="matrix(0.13333333,0,0,-0.13333333,0,1066.6667)" data-index="49"></path>
      <path id="path52" d="m 3779.17,4061.48 51.87,48.9 0.86,62.84 13.41,6.58 8.77,-16.18 15.66,51.97 36.68,24.37 54.78,-20.85 31.38,-51.79 -26.47,-52.19 -58.32,-37.98 -68.1,-70 -60.52,54.33" style="fill: rgb(239, 191, 165); fill-opacity: 1; fill-rule: nonzero; opacity: 1;" transform="matrix(0.13333333,0,0,-0.13333333,0,1066.6667)" data-index="50"></path>
      <path id="path53" d="m 3795.57,4138.17 -290.44,-344.22 -379.21,367.34 -58.97,-439.14 461.61,-228.87 363.3,544.62 -96.29,100.27" style="fill:#d67086;fill-opacity:1;fill-rule:nonzero;stroke:none" transform="matrix(0.13333333,0,0,-0.13333333,0,1066.6667)" data-index="51"></path>
      <path id="path54" d="m 2648.47,691.148 -6.29,-62.078 112.78,-77.398 65.83,54.406 -53.25,69.742 -112.78,77.41 -6.29,-62.082" style="fill: rgb(59, 51, 135); fill-opacity: 1; fill-rule: nonzero; opacity: 1;" transform="matrix(0.13333333,0,0,-0.13333333,0,1066.6667)" data-index="52"></path>
      <path id="path55" d="m 2651.28,2589.18 -19.1,-188.54 169.13,-647.77 -157.05,-1040.909 115.6,-39.832 304.84,1016.241 48.38,295.64 -1.77,625.86 -460.03,-20.69" style="fill:#efbfa5;fill-opacity:1;fill-rule:nonzero;stroke:none" transform="matrix(0.13333333,0,0,-0.13333333,0,1066.6667)" data-index="53"></path>
      <path id="path56" d="M 3540.41,2379.04 3297.25,634.84 h -110.53 l -19.89,1118.03 -201.17,784.74 574.75,-158.57" style="fill:#efbfa5;fill-opacity:1;fill-rule:nonzero;stroke:none" transform="matrix(0.13333333,0,0,-0.13333333,0,1066.6667)" data-index="54"></path>
      <path id="path57" d="m 3187.36,648.629 v -62.637 l 119.52,-62.66 59.76,62.66 -59.76,62.637 h -119.52" style="fill: rgb(59, 51, 135); fill-opacity: 1; fill-rule: nonzero; opacity: 1;" transform="matrix(0.13333333,0,0,-0.13333333,0,1066.6667)" data-index="55"></path>
      <path id="path58" d="m 3268.86,4169.55 c -8.76,14.32 -20.45,26.5 -36.49,35.56 -109.81,61.97 -291.82,7.39 -410.97,7.39 -35.21,-370.75 -132.57,-724.09 -195.44,-1088.1 -66.78,-386.6 -141.97,-771.75 -225.5,-1155.08 -4.73,-21.71 331.62,-10.76 363.33,-11.29 323.58,-5.46 747.14,-4.35 1059.37,93.49 -199.26,534.94 -272.01,1110.5 -428.92,1659.35 -27.55,96.36 -60.26,191.27 -85.07,288.41 -14.38,56.31 -12.17,124.26 -40.31,170.27" style="fill:#d67086;fill-opacity:1;fill-rule:nonzero;stroke:none" transform="matrix(0.13333333,0,0,-0.13333333,0,1066.6667)" data-index="56"></path>
      <path id="path59" d="m 3288.65,4606.87 c -42.32,223.44 -321.48,184.82 -401.56,3.88 -45.54,-102.89 2.17,-248.55 93.27,-320.14 1.95,-19.78 4.52,-74.36 19.64,-87.58 16.38,-14.33 67.97,-0.68 88.19,4 5.61,1.3 11.47,2.91 15.53,6.98 5.08,5.1 5.94,18.75 6.04,33.89 14.84,1.01 30.04,3.9 45.51,8.97 64.94,21.32 111.96,81.44 131.4,146.95 19.45,65.52 14.7,135.9 1.98,203.05" style="fill: rgb(239, 191, 165); fill-opacity: 1; fill-rule: nonzero; opacity: 1;" transform="matrix(0.13333333,0,0,-0.13333333,0,1066.6667)" data-index="57"></path>
      <path id="path60" d="m 2875.9,3719.92 c 2.65,0.16 4.8,0.36 6.38,0.64 49.24,8.44 128.26,24.34 151.13,76.23 23.42,53.16 -18.2,149.61 -25.07,204.85 -10.44,83.98 -13.91,168.68 -17.95,253.14 -3.65,76.15 23.56,151.19 63.39,216.19 39.84,65.01 91.95,121.44 143.27,177.81 21.34,23.46 43.43,48.53 49.95,79.56 7.22,34.32 -6.51,70.55 -29.14,97.34 -34.84,41.22 -76.18,61.73 -128.78,62.98 -184.64,4.41 -323.44,-104.81 -375.82,-285.13 -75.05,-258.39 18.71,-504.95 4.74,-762.07 -2.38,-43.9 -16.9,-87.08 -41.52,-123.51 6.54,9.68 159.59,-0.3 199.42,1.97" style="fill: rgb(41, 41, 73); fill-opacity: 1; fill-rule: nonzero; opacity: 1;" transform="matrix(0.13333333,0,0,-0.13333333,0,1066.6667)" data-index="58"></path>
      <path id="path61" d="m 2502.85,2736.04 c -14.79,-18.54 -41.43,-24.38 -64.68,-19.7 -23.24,4.68 -43.7,18.18 -62.38,32.78 -22.54,17.61 -43.5,37.25 -62.52,58.6 -10.94,12.28 -21.45,25.51 -26.55,41.14 -5.09,15.62 -3.83,34.23 6.95,46.63 7.4,8.5 18.19,13.11 28.59,17.45 7.36,3.08 15.27,6.22 23.11,4.73 6.59,-1.25 12.1,-5.6 17.33,-9.8 35.85,-28.86 187.03,-113.11 140.15,-171.83" style="fill:#d67086;fill-opacity:1;fill-rule:nonzero;stroke:none" transform="matrix(0.13333333,0,0,-0.13333333,0,1066.6667)" data-index="59"></path>
      <path id="path62" d="m 2430.14,2735.9 c 2.95,-0.82 5.96,-1.45 9.05,-1.83 9.64,-1.18 24.3,-1 33.18,3.49 -0.01,-0.01 26.19,18.35 14.71,18.08 l -23.79,-0.52 48.29,50.9 3.84,56.82 -58.55,48.11 -78.28,2.02 c -23.44,-35.61 -56.92,-68.57 -29.24,-112.1 8.2,-12.92 19.88,-23.18 31.39,-33.26 14.83,-12.99 30.74,-26.48 49.4,-31.71" style="fill:#efbfa5;fill-opacity:1;fill-rule:nonzero;stroke:none" transform="matrix(0.13333333,0,0,-0.13333333,0,1066.6667)" data-index="60"></path>
      <path id="path63" d="m 6321.44,4179.58 c -2.21,-0.82 -4.4,-1.65 -6.57,-2.5 -104.05,-40.47 -185.76,-222.1 -232.58,-328.83 -120.87,-275.52 -173.68,-562.62 -183.28,-867.08 -5.16,-163.94 -3.22,-328.16 1.98,-492.21 1.43,-45.33 40.73,-451.1 20.64,-460.79 206.1,99.41 415.66,193.29 635.07,250.03 219.39,56.75 450.2,75.39 671.83,23.7 -67.41,515.08 -165.09,1039.15 -305.97,1536.84 -16.86,59.52 -28.12,122.98 -53.09,179.39 -28.77,64.98 -71.93,84.16 -126.48,122.57 -18.68,13.16 -37.51,26.39 -58.06,35.57 -108.27,48.37 -253.89,43.93 -363.49,3.31" style="fill:#3b3387;fill-opacity:1;fill-rule:nonzero;stroke:none" transform="matrix(0.13333333,0,0,-0.13333333,0,1066.6667)" data-index="61"></path>
      <path id="path64" d="m 6004.38,2558.39 236.22,-958.71 5.5,-737.2 112.64,-20.98 46.64,683.94 112.58,1203.57 -513.58,-170.62" style="fill:#c1796b;fill-opacity:1;fill-rule:nonzero;stroke:none" transform="matrix(0.13333333,0,0,-0.13333333,0,1066.6667)" data-index="62"></path>
      <path id="path65" d="m 6362.01,848.41 18.53,-71.668 -16.26,-140.633 -92.94,-0.16 -34.81,203.27 10.79,33.992 114.69,-24.801" style="fill:#3b3387;fill-opacity:1;fill-rule:nonzero;stroke:none" transform="matrix(0.13333333,0,0,-0.13333333,0,1066.6667)" data-index="63"></path>
      <path id="path66" d="m 6906.24,2664.29 20.84,-828.42 -110.58,-1170.018 -113.22,-8.293 -40.68,1072.631 -230.57,972.4 474.21,-38.3" style="fill:#c1796b;fill-opacity:1;fill-rule:nonzero;stroke:none" transform="matrix(0.13333333,0,0,-0.13333333,0,1066.6667)" data-index="64"></path>
      <path id="path67" d="m 6812.96,685.398 152.51,-80.976 -12.11,-71.231 -269.4,33 12.94,102.508 116.06,16.699" style="fill:#3b3387;fill-opacity:1;fill-rule:nonzero;stroke:none" transform="matrix(0.13333333,0,0,-0.13333333,0,1066.6667)" data-index="65"></path>
      <path id="path68" d="m 6939.43,2557.39 76.74,-957.11 -78.07,-656.378 -306.69,17.368 -54.66,746.26 -132.63,813.58 20.61,126.67 442,-6.46 32.7,-83.93" style="fill:#474ebb;fill-opacity:1;fill-rule:nonzero;stroke:none" transform="matrix(0.13333333,0,0,-0.13333333,0,1066.6667)" data-index="66"></path>
      <path id="path69" d="m 6474.47,1669.93 -36.03,-686.508 -266.58,13.668 5.43,651.07 -168.1,817.63 38.35,228.56 448.35,-27.91 -21.42,-996.51" style="fill:#474ebb;fill-opacity:1;fill-rule:nonzero;stroke:none" transform="matrix(0.13333333,0,0,-0.13333333,0,1066.6667)" data-index="67"></path>
      <path id="path70" d="m 7096.96,2540.31 c -274.39,-41.9 -730.98,-73.89 -1005.38,-115.79 -14.78,496.12 34.06,1069.05 153.77,1549.17 21.71,87.08 53.78,181.08 129.86,225.43 81.53,47.53 254.43,41.08 304.17,-51.24 72.79,-135.06 87.15,-350.05 119.63,-500.36 73.47,-340.08 252.44,-762.19 297.95,-1107.21" style="fill:#ffffff;fill-opacity:1;fill-rule:nonzero;stroke:none" transform="matrix(0.13333333,0,0,-0.13333333,0,1066.6667)" data-index="68"></path>
      <path id="path71" d="m 6326.94,4550.81 c 40.85,202.38 293.87,164.29 364.6,-0.85 46.59,-108.77 -21.02,-268.27 -130.52,-314.51 6.69,-27.66 12.22,-55.6 16.53,-83.74 -31.02,-1.73 -62.02,-3.47 -93.03,-5.21 -9.59,-0.53 -20.86,-0.33 -26.6,7.37 -3.48,4.67 -3.86,10.88 -4.11,16.69 -0.83,19.61 -1.67,39.21 -2.51,58.82 -2.35,0.7 -4.72,1.43 -7.08,2.24 -58.72,20.05 -100.75,75.14 -117.7,134.83 -16.94,59.69 -11.86,123.54 0.42,184.36" style="fill:#c1796b;fill-opacity:1;fill-rule:nonzero;stroke:none" transform="matrix(0.13333333,0,0,-0.13333333,0,1066.6667)" data-index="69"></path>
      <path id="path72" d="m 6352.37,4495.43 c -32.02,-60.95 -12.2,-134.79 5.46,-198.01 15.66,-56.06 18.46,-91.74 -45.26,-95.74 -35.9,-2.25 -99.72,-6.98 -125.73,24.48 -19.69,23.84 3.37,83.7 18.58,106.5 11.61,17.4 35.78,23.25 46.92,40.96 4.6,7.3 6.51,15.94 8.02,24.43 6.17,34.67 7.06,70.29 2.64,105.24 -3.01,23.73 -8.46,47.45 -6.63,71.3 2.64,34.58 33.27,70.38 51.07,99.63 33.13,54.44 127.99,119.2 189.21,62.19 13.94,-12.98 20.17,-32.08 24.97,-50.52 2.86,-11.01 5.43,-22.43 3.73,-33.67 -6.81,-44.85 -48.9,-45.71 -80.61,-62.39 -39.11,-20.57 -71.93,-55.49 -92.37,-94.4" style="fill:#292949;fill-opacity:1;fill-rule:nonzero;stroke:none" transform="matrix(0.13333333,0,0,-0.13333333,0,1066.6667)" data-index="70"></path>
      <path id="path73" d="m 6675.6,4431.73 c -2.63,-32.11 -25.02,-64.63 -11.97,-94.07 5.82,-13.12 17.67,-22.36 27.21,-33.08 26.05,-29.29 34.92,-72.86 22.37,-109.99 63.86,-7.94 127.72,-15.89 191.58,-23.83 9.63,-1.2 19.75,-2.34 28.75,1.28 19.24,7.74 24.19,32.19 26.4,52.81 4.36,40.61 8.14,84.24 -11.77,119.91 -9.22,16.53 -23.01,30.18 -32.18,46.74 -44.11,79.69 30.64,194.68 -27.45,264.83 -25.92,31.3 -69.45,40.43 -104,61.84 -60.23,37.32 -91.73,111.24 -154.26,144.58 -118.09,62.96 -264.21,-69.68 -208.33,-193.24 45.57,-100.76 264.24,-108.47 253.65,-237.78" style="fill:#292949;fill-opacity:1;fill-rule:nonzero;stroke:none" transform="matrix(0.13333333,0,0,-0.13333333,0,1066.6667)" data-index="71"></path>
      <path id="path74" d="m 6329.19,4164.76 c 0,0 -87.3,-1231.9 103.98,-1474.8 191.27,-242.9 273.09,-334.42 273.09,-334.42 l -783.91,-327.31 c 0,0 17.02,1796.34 406.84,2136.53" style="fill:#3b3387;fill-opacity:1;fill-rule:nonzero;stroke:none" transform="matrix(0.13333333,0,0,-0.13333333,0,1066.6667)" data-index="72"></path>
      <path id="path75" d="m 7143.67,3410.49 c 18.5,-14.84 24.28,-41.49 19.55,-64.72 -4.72,-23.23 -18.27,-43.66 -32.91,-62.31 -17.65,-22.5 -37.34,-43.41 -58.75,-62.4 -12.29,-10.9 -25.54,-21.38 -41.18,-26.45 -15.64,-5.06 -34.24,-3.76 -46.62,7.05 -8.49,7.41 -13.08,18.21 -17.39,28.62 -3.06,7.38 -6.18,15.29 -4.67,23.13 1.26,6.58 5.61,12.08 9.83,17.29 28.94,35.8 113.52,186.8 172.14,139.79" style="fill:#898f92;fill-opacity:1;fill-rule:nonzero;stroke:none" transform="matrix(0.13333333,0,0,-0.13333333,0,1066.6667)" data-index="73"></path>
      <path id="path76" d="m 7143.64,3337.78 c 0.84,2.94 1.47,5.96 1.85,9.05 1.21,9.63 1.06,24.29 -3.41,33.19 0.01,-0.01 -18.29,26.22 -18.06,14.75 l 0.48,-23.8 -50.8,48.4 -56.81,3.96 -48.24,-58.44 -2.19,-78.27 c 35.56,-23.52 68.45,-57.07 112.05,-29.49 12.93,8.18 23.22,19.83 33.33,31.33 13,14.79 26.53,30.68 31.8,49.32" style="fill:#ddc8ac;fill-opacity:1;fill-rule:nonzero;stroke:none" transform="matrix(0.13333333,0,0,-0.13333333,0,1066.6667)" data-index="74"></path>
      <path id="path77" d="m 8048.04,3645.73 c -25.04,-39.01 -68.77,-64.9 -118.58,-64.9 -30.79,0 -59.25,9.91 -82.43,26.68 -16.68,-24.08 -44.47,-39.88 -75.99,-39.88 -32.65,0 -61.29,16.99 -77.73,42.57 -15.77,-7.54 -33.43,-11.76 -52.08,-11.76 -66.84,0 -121.01,54.17 -121.01,121 0,23.51 6.72,45.43 18.32,64 -51.94,3.04 -93.13,46.12 -93.13,98.83 0,1.89 0.07,3.77 0.18,5.64 -59.86,-21.88 -112.14,-53.36 -155.2,-85.58 -75.94,-56.82 -172.24,-82.71 -266.65,-73.51 -131.35,12.8 -310.17,-6.22 -443.53,-159.2 -178.83,-205.1 -149.11,-471.16 -38.57,-689.66 81.8,-161.7 196.42,-320.35 345.61,-434.73 144.36,-110.68 385.82,-202.83 564.81,-86.05 54.58,35.61 119.43,54.39 184.4,50.27 310.96,-19.71 434.33,335.75 476.27,562.67 40.67,220.02 43.71,473.44 -64.69,673.61" style="fill:#d67086;fill-opacity:1;fill-rule:nonzero;stroke:none" transform="matrix(0.13333333,0,0,-0.13333333,0,1066.6667)" data-index="75"></path>
      <path id="path78" d="m 7242.48,3784.6 c 47.6,39.09 84.74,101.77 109.43,167.68 24.71,65.9 38.12,135.39 49.04,204.05 7.57,47.58 14.08,95.61 12.92,141.71 -48.33,-19.18 -96.41,-42.07 -143.91,-68.49 -53.55,-29.81 -107.35,-64.96 -153.11,-117.13 -45.77,-52.17 -82.95,-123.88 -90.27,-196.63 -15.39,-153.08 117.84,-211.72 215.9,-131.19" style="fill:#292949;fill-opacity:1;fill-rule:nonzero;stroke:none" transform="matrix(0.13333333,0,0,-0.13333333,0,1066.6667)" data-index="76"></path>
      <path id="path79" d="m 5778.83,7453.53 c -269.13,-6.38 -589.87,-184.17 -645.98,-420.44 -104.13,219.39 -528.26,316.46 -792.81,266.61 -698.1,-131.55 -853.72,-941.91 -499.54,-1438.52 190.63,-267.28 447.73,-491.45 723.16,-688.04 230.65,-164.63 816.54,-503.6 818.06,-502.07 1.8,-1.18 504.19,452.46 695.46,661.54 228.41,249.68 433.14,522.51 563.87,823.65 242.91,559.52 -152.04,1314.1 -862.22,1297.27" style="fill: rgb(214, 112, 134); fill-opacity: 1; fill-rule: nonzero; opacity: 1;" transform="matrix(0.13333333,0,0,-0.13333333,0,1066.6667)" data-index="77"></path>
      <path id="path80" d="m 5394.11,4662.53 c -0.67,0 -16.63,8.91 -43.87,24.54 0.02,0.46 0.05,0.93 0.07,1.39 19.59,-11.17 30.83,-17.4 31.39,-17.4 0.01,0 0.02,0.01 0.02,0.01 0,0 0,0 0.01,0 1.87,-0.01 187.62,167.07 375.97,345.04 l 7.18,-13.47 c -186.54,-176.1 -368.89,-340.1 -370.74,-340.1 h -0.01 c 0,0 -0.01,-0.01 -0.02,-0.01" style="fill:#e0e0e0;fill-opacity:1;fill-rule:nonzero;stroke:none" transform="matrix(0.13333333,0,0,-0.13333333,0,1066.6667)" data-index="78"></path>
      <path id="path81" d="m 5350.24,4687.07 c -84.92,48.71 -279.51,162.69 -462.76,275.63 0.6,-0.08 1.2,-0.15 1.79,-0.22 188.68,-115.98 386.04,-231.25 461.04,-274.02 -0.02,-0.46 -0.05,-0.93 -0.07,-1.39" style="fill:#242440;fill-opacity:1;fill-rule:nonzero;stroke:none" transform="matrix(0.13333333,0,0,-0.13333333,0,1066.6667)" data-index="79"></path>
      <path id="path82" d="m 5907.21,5138.89 -13.3,7.65 c 71.71,69.79 136.71,135.18 183.27,186.07 228.41,249.68 433.14,522.51 563.87,823.65 36.7,84.52 58.84,173.49 67.53,263.58 5.22,10.92 10.35,21.87 15.4,32.86 -5.31,-104.17 -28.21,-207.53 -70.51,-304.97 -130.75,-301.14 -335.46,-573.97 -563.88,-823.65 -46.36,-50.67 -111.02,-115.74 -182.38,-185.19" style="fill:#e0e0e0;fill-opacity:1;fill-rule:nonzero;stroke:none" transform="matrix(0.13333333,0,0,-0.13333333,0,1066.6667)" data-index="80"></path>
      <path id="path83" d="m 5764.88,5002.64 -7.18,13.47 c 46.14,43.59 92.42,87.83 136.21,130.43 l 13.3,-7.65 c -45.71,-44.49 -94.14,-90.75 -142.33,-136.25" style="fill:#d2a891;fill-opacity:1;fill-rule:nonzero;stroke:none" transform="matrix(0.13333333,0,0,-0.13333333,0,1066.6667)" data-index="81"></path>
      <path id="path84" d="m 5381.7,4671.06 c -0.56,0 -11.8,6.23 -31.39,17.4 -75,42.77 -272.36,158.04 -461.04,274.02 36.47,-4.36 73.29,-6.55 110.38,-6.55 89.91,0 181.33,12.88 272.73,38.98 270.07,77.09 504.88,247.4 700.8,435.14 202.61,194.13 384.86,414.56 538.01,645.06 73.54,110.67 140.49,225.71 197.39,344.73 -8.69,-90.09 -30.83,-179.06 -67.53,-263.58 -130.73,-301.14 -335.46,-573.97 -563.87,-823.65 -46.56,-50.89 -111.56,-116.28 -183.27,-186.07 -43.79,-42.6 -90.07,-86.84 -136.21,-130.43 -188.35,-177.97 -374.1,-345.05 -375.97,-345.04 -0.01,0 -0.01,0 -0.01,0 0,0 -0.01,-0.01 -0.02,-0.01" style="fill:#bc6276;fill-opacity:1;fill-rule:nonzero;stroke:none" transform="matrix(0.13333333,0,0,-0.13333333,0,1066.6667)" data-index="82"></path>
      <path id="path85" d="m 6475.95,6297.05 c -183.9,-24.11 -367.79,-48.22 -551.68,-72.32 -92.24,235.03 -184.47,470.06 -276.7,705.1 -13.33,33.98 -65.05,25.87 -72.61,-7.65 -98.35,-436.4 -196.71,-872.8 -295.07,-1309.2 -5.69,-25.28 -11.39,-50.55 -17.09,-75.83 -126.3,267.15 -252.59,534.3 -378.89,801.45 -20.26,42.85 -40.51,85.69 -60.77,128.53 -12.21,25.83 -57.58,31.81 -69.7,1.22 -56.36,-142.2 -112.72,-284.39 -169.08,-426.59 -206.35,-21.74 -412.69,-43.48 -619.04,-65.22 -48.45,-5.11 -41.07,-75.99 7.47,-70.88 214.11,22.56 428.23,45.12 642.35,67.68 12.53,1.32 26.07,9.4 30.66,20.98 48.3,121.85 96.6,243.71 144.9,365.57 129.57,-274.08 259.14,-548.15 388.71,-822.23 20.26,-42.85 40.51,-85.69 60.77,-128.53 15.2,-32.15 64.69,-27.47 72.61,7.65 98.35,436.4 196.71,872.8 295.07,1309.2 4.71,20.87 9.41,41.74 14.11,62.62 80.63,-205.45 161.24,-410.89 241.87,-616.34 5.59,-14.27 22.81,-24.32 39.04,-22.19 193.52,25.37 387.02,50.74 580.53,76.1 48.23,6.33 40.96,77.22 -7.46,70.88" style="fill:#ffffff;fill-opacity:1;fill-rule:nonzero;stroke:none" transform="matrix(0.13333333,0,0,-0.13333333,0,1066.6667)" data-index="83"></path>
      <path id="path86" d="m 2626.17,2813.52 -786.66,-89.41 c -290.92,-33.06 -555.2,189.52 -590.28,497.14 -35.08,307.63 172.32,583.81 463.24,616.87 l 784.68,89.18 129.02,-1113.78" style="fill: rgb(247, 247, 247); fill-opacity: 1; fill-rule: nonzero; opacity: 1;" transform="matrix(0.13333333,0,0,-0.13333333,0,1066.6667)" data-index="84"></path>
      <path id="path87" d="m 2653.95,2816.67 1528.7,173.74 c 233.9,26.58 401.94,237.79 375.27,471.69 l -30.48,267.23 c -26.65,233.77 -237.73,401.7 -471.51,375.13 L 2526.91,3930.68 2653.95,2816.67" style="fill: rgb(59, 51, 135); fill-opacity: 1; fill-rule: nonzero; opacity: 1;" transform="matrix(0.13333333,0,0,-0.13333333,0,1066.6667)" data-index="85"></path>
      <path id="path88" d="m 2887.2,3600.38 41.61,4.73 41.64,-365.08 -41.62,-4.73 -18.82,165.03 -159.86,-18.16 18.82,-165.03 -41.61,-4.73 -41.64,365.07 41.62,4.73 18.82,-165.03 159.86,18.16 -18.82,165.04" style="fill:#ffffff;fill-opacity:1;fill-rule:nonzero;stroke:none" transform="matrix(0.13333333,0,0,-0.13333333,0,1066.6667)" data-index="86"></path>
      <path id="path89" d="m 3029.07,3616.5 183.51,20.85 3.99,-35.01 -141.89,-16.12 14.49,-127.02 131.95,14.99 4,-35.01 -131.96,-14.99 15.17,-133.03 151.35,17.2 3.99,-35.01 -192.96,-21.92 -41.64,365.07" style="fill:#ffffff;fill-opacity:1;fill-rule:nonzero;stroke:none" transform="matrix(0.13333333,0,0,-0.13333333,0,1066.6667)" data-index="87"></path>
      <path id="path90" d="m 3396.74,3618.77 -34.69,-187.32 110.2,12.51 z m -32.35,35.84 55.33,6.29 154.67,-352.23 -41.14,-4.68 -46.13,106.21 -131.48,-14.96 -21.03,-113.82 -41.14,-4.68 70.92,377.87" style="fill:#ffffff;fill-opacity:1;fill-rule:nonzero;stroke:none" transform="matrix(0.13333333,0,0,-0.13333333,0,1066.6667)" data-index="88"></path>
      <path id="path91" d="m 3632.55,3315.27 -41.63,365.08 41.62,4.73 37.64,-330.07 128.64,14.62 4,-35 -170.27,-19.36" style="fill:#ffffff;fill-opacity:1;fill-rule:nonzero;stroke:none" transform="matrix(0.13333333,0,0,-0.13333333,0,1066.6667)" data-index="89"></path>
      <path id="path92" d="m 3750.04,3662.97 -3.99,35.01 227.01,25.8 3.99,-35.01 -92.69,-10.54 37.64,-330.06 -41.62,-4.72 -37.65,330.06 -92.69,-10.54" style="fill:#ffffff;fill-opacity:1;fill-rule:nonzero;stroke:none" transform="matrix(0.13333333,0,0,-0.13333333,0,1066.6667)" data-index="90"></path>
      <path id="path93" d="m 4227.97,3752.74 41.62,4.74 41.63,-365.08 -41.62,-4.72 -18.81,165.03 -159.86,-18.18 18.82,-165.02 -41.62,-4.73 -41.63,365.07 41.62,4.73 18.81,-165.03 159.86,18.16 -18.82,165.03" style="fill:#ffffff;fill-opacity:1;fill-rule:nonzero;stroke:none" transform="matrix(0.13333333,0,0,-0.13333333,0,1066.6667)" data-index="91"></path>
      <path id="path94" d="m 2263.05,3428.6 c -66.62,-7.56 -133.25,-15.13 -199.87,-22.71 -6.25,-0.7 -12.49,-1.42 -18.73,-2.13 -5.85,51.31 -11.7,102.62 -17.55,153.93 -2.94,25.74 -5.87,51.48 -8.8,77.22 -0.98,8.59 -8.69,15.09 -16.82,14.16 -41.41,-4.7 -82.81,-9.4 -124.22,-14.11 -8.11,-0.93 -14.18,-8.97 -13.2,-17.58 8.03,-70.45 16.07,-140.9 24.1,-211.34 0.76,-6.61 1.51,-13.21 2.26,-19.81 -48.52,-5.51 -97.04,-11.02 -145.56,-16.54 -24.35,-2.77 -48.69,-5.53 -73.04,-8.3 -8.11,-0.92 -14.17,-8.98 -13.19,-17.57 4.99,-43.79 9.98,-87.57 14.97,-131.36 0.56,-4.86 2.69,-8.36 5.58,-10.61 2.74,-2.59 6.52,-4.09 11.24,-3.55 66.63,7.57 133.25,15.15 199.88,22.72 6.24,0.71 12.48,1.41 18.72,2.12 5.85,-51.3 11.7,-102.61 17.55,-153.92 2.94,-25.74 5.87,-51.49 8.81,-77.23 0.98,-8.57 8.68,-15.09 16.81,-14.16 41.41,4.71 82.82,9.42 124.23,14.11 4.6,0.53 7.88,2.74 9.98,5.76 2.41,2.86 3.79,6.82 3.21,11.82 -8.03,70.45 -16.07,140.9 -24.1,211.35 -0.75,6.6 -1.51,13.2 -2.26,19.8 48.53,5.51 97.05,11.03 145.57,16.55 24.34,2.76 48.68,5.52 73.03,8.3 8.11,0.92 14.18,8.97 13.2,17.57 -5,43.78 -9.99,87.56 -14.98,131.35 -0.98,8.58 -8.69,15.09 -16.82,14.16" style="fill:#3b3387;fill-opacity:1;fill-rule:nonzero;stroke:none" transform="matrix(0.13333333,0,0,-0.13333333,0,1066.6667)" data-index="92"></path>
      <path id="path95" d="m 6418.21,3211.23 c 0.67,-2.99 1.54,-5.94 2.66,-8.85 3.5,-9.05 10.57,-21.89 18.72,-27.61 -0.01,0.01 28.53,-14.45 22.89,-4.45 l -11.69,20.73 67.66,-18.58 51.91,23.41 14.83,74.32 -35.13,69.98 c -42.45,3.88 -87.31,17.87 -112.65,-27.07 -7.52,-13.32 -11.06,-28.47 -14.53,-43.37 -4.45,-19.2 -8.85,-39.59 -4.67,-58.51" style="fill:#c1796b;fill-opacity:1;fill-rule:nonzero;stroke:none" transform="matrix(0.13333333,0,0,-0.13333333,0,1066.6667)" data-index="93"></path>
      <path id="path96" d="m 6457.68,3345.3 -243.26,157.88 -187.33,-176.81 393.78,-123.99 36.81,142.92" style="fill:#3b3387;fill-opacity:1;fill-rule:nonzero;stroke:none" transform="matrix(0.13333333,0,0,-0.13333333,0,1066.6667)" data-index="94"></path>
    </g>
  </g>
</svg>